HIERARCHY
ROOT Hips
{
  OFFSET -58.8022 91.0554 192.614
  CHANNELS 6 Xposition Yposition Zposition Zrotation Xrotation Yrotation
  JOINT Spine
  {
    OFFSET 0 8 0
    CHANNELS 6 Xposition Yposition Zposition Zrotation Xrotation Yrotation
    JOINT Spine1
    {
      OFFSET 0 8 0
      CHANNELS 6 Xposition Yposition Zposition Zrotation Xrotation Yrotation
      JOINT Spine2
      {
        OFFSET 0 8 0
        CHANNELS 6 Xposition Yposition Zposition Zrotation Xrotation Yrotation
        JOINT Spine3
        {
          OFFSET 0 8 0
          CHANNELS 6 Xposition Yposition Zposition Zrotation Xrotation Yrotation
          JOINT Neck
          {
            OFFSET 0 17 0
            CHANNELS 6 Xposition Yposition Zposition Zrotation Xrotation Yrotation
            JOINT Head
            {
              OFFSET 0 10.8 0
              CHANNELS 6 Xposition Yposition Zposition Zrotation Xrotation Yrotation
              End Site
              {
                OFFSET 0 20.25 0
              }
            }
          }
          JOINT LeftShoulder
          {
            OFFSET 5 17 0
            CHANNELS 6 Xposition Yposition Zposition Zrotation Xrotation Yrotation
            JOINT LeftShoulder2
            {
              OFFSET 6.45 0 0
              CHANNELS 6 Xposition Yposition Zposition Zrotation Xrotation Yrotation
              JOINT LeftArm
              {
                OFFSET 6.45 0 0
                CHANNELS 6 Xposition Yposition Zposition Zrotation Xrotation Yrotation
                JOINT LeftForeArm
                {
                  OFFSET 0 -32.4 -2
                  CHANNELS 6 Xposition Yposition Zposition Zrotation Xrotation Yrotation
                  JOINT LeftHand
                  {
                    OFFSET 0 -25.65 2
                    CHANNELS 6 Xposition Yposition Zposition Zrotation Xrotation Yrotation
                    JOINT LeftHandThumb1
                    {
                      OFFSET -0.5 -1.5 2.65
                      CHANNELS 6 Xposition Yposition Zposition Zrotation Xrotation Yrotation
                      JOINT LeftHandThumb2
                      {
                        OFFSET 0 -3.8 3.7
                        CHANNELS 6 Xposition Yposition Zposition Zrotation Xrotation Yrotation
                        JOINT LeftHandThumb3
                        {
                          OFFSET 0 -3 2.7
                          CHANNELS 6 Xposition Yposition Zposition Zrotation Xrotation Yrotation
                          End Site
                          {
                            OFFSET 0 -2.3 1.8
                          }
                        }
                      }
                    }
                    JOINT LeftHandIndex
                    {
                      OFFSET 0 -1.9 1.6
                      CHANNELS 6 Xposition Yposition Zposition Zrotation Xrotation Yrotation
                      JOINT LeftHandIndex1
                      {
                        OFFSET 0 -8.3 1.9
                        CHANNELS 6 Xposition Yposition Zposition Zrotation Xrotation Yrotation
                        JOINT LeftHandIndex2
                        {
                          OFFSET 0 -4.5 0
                          CHANNELS 6 Xposition Yposition Zposition Zrotation Xrotation Yrotation
                          JOINT LeftHandIndex3
                          {
                            OFFSET 0 -3.4 0
                            CHANNELS 6 Xposition Yposition Zposition Zrotation Xrotation Yrotation
                            End Site
                            {
                              OFFSET 0 -2.6 0
                            }
                          }
                        }
                      }
                    }
                    JOINT LeftHandMiddle
                    {
                      OFFSET -0.25 -2.2 0.4
                      CHANNELS 6 Xposition Yposition Zposition Zrotation Xrotation Yrotation
                      JOINT LeftHandMiddle1
                      {
                        OFFSET 0 -8.3 1
                        CHANNELS 6 Xposition Yposition Zposition Zrotation Xrotation Yrotation
                        JOINT LeftHandMiddle2
                        {
                          OFFSET 0 -4.65 0
                          CHANNELS 6 Xposition Yposition Zposition Zrotation Xrotation Yrotation
                          JOINT LeftHandMiddle3
                          {
                            OFFSET 0 -3.3 0
                            CHANNELS 6 Xposition Yposition Zposition Zrotation Xrotation Yrotation
                            End Site
                            {
                              OFFSET 0 -2.7 0
                            }
                          }
                        }
                      }
                    }
                    JOINT LeftHandRing
                    {
                      OFFSET -0.5 -2.15 -0.8
                      CHANNELS 6 Xposition Yposition Zposition Zrotation Xrotation Yrotation
                      JOINT LeftHandRing1
                      {
                        OFFSET 0 -7.75 -0.2
                        CHANNELS 6 Xposition Yposition Zposition Zrotation Xrotation Yrotation
                        JOINT LeftHandRing2
                        {
                          OFFSET 0 -3.8 0
                          CHANNELS 6 Xposition Yposition Zposition Zrotation Xrotation Yrotation
                          JOINT LeftHandRing3
                          {
                            OFFSET 0 -3.4 0
                            CHANNELS 6 Xposition Yposition Zposition Zrotation Xrotation Yrotation
                            End Site
                            {
                              OFFSET 0 -2.6 0
                            }
                          }
                        }
                      }
                    }
                    JOINT LeftHandPinky
                    {
                      OFFSET -0.75 -1.75 -1.85
                      CHANNELS 6 Xposition Yposition Zposition Zrotation Xrotation Yrotation
                      JOINT LeftHandPinky1
                      {
                        OFFSET 0 -7.15 -1
                        CHANNELS 6 Xposition Yposition Zposition Zrotation Xrotation Yrotation
                        JOINT LeftHandPinky2
                        {
                          OFFSET 0 -3 0
                          CHANNELS 6 Xposition Yposition Zposition Zrotation Xrotation Yrotation
                          JOINT LeftHandPinky3
                          {
                            OFFSET 0 -2.35 0
                            CHANNELS 6 Xposition Yposition Zposition Zrotation Xrotation Yrotation
                            End Site
                            {
                              OFFSET 0 -2.1 0
                            }
                          }
                        }
                      }
                    }
                  }
                }
              }
            }
          }
          JOINT RightShoulder
          {
            OFFSET -5 17 0
            CHANNELS 6 Xposition Yposition Zposition Zrotation Xrotation Yrotation
            JOINT RightShoulder2
            {
              OFFSET -6.45 0 0
              CHANNELS 6 Xposition Yposition Zposition Zrotation Xrotation Yrotation
              JOINT RightArm
              {
                OFFSET -6.45 0 0
                CHANNELS 6 Xposition Yposition Zposition Zrotation Xrotation Yrotation
                JOINT RightForeArm
                {
                  OFFSET 0 -32.4 -2
                  CHANNELS 6 Xposition Yposition Zposition Zrotation Xrotation Yrotation
                  JOINT RightHand
                  {
                    OFFSET 0 -25.65 2
                    CHANNELS 6 Xposition Yposition Zposition Zrotation Xrotation Yrotation
                    JOINT RightHandThumb1
                    {
                      OFFSET 0.5 -1.5 2.65
                      CHANNELS 6 Xposition Yposition Zposition Zrotation Xrotation Yrotation
                      JOINT RightHandThumb2
                      {
                        OFFSET 0 -3.8 3.7
                        CHANNELS 6 Xposition Yposition Zposition Zrotation Xrotation Yrotation
                        JOINT RightHandThumb3
                        {
                          OFFSET 0 -3 2.7
                          CHANNELS 6 Xposition Yposition Zposition Zrotation Xrotation Yrotation
                          End Site
                          {
                            OFFSET 0 -2.3 1.8
                          }
                        }
                      }
                    }
                    JOINT RightHandIndex
                    {
                      OFFSET 0 -1.9 1.6
                      CHANNELS 6 Xposition Yposition Zposition Zrotation Xrotation Yrotation
                      JOINT RightHandIndex1
                      {
                        OFFSET 0 -8.3 1.9
                        CHANNELS 6 Xposition Yposition Zposition Zrotation Xrotation Yrotation
                        JOINT RightHandIndex2
                        {
                          OFFSET 0 -4.5 0
                          CHANNELS 6 Xposition Yposition Zposition Zrotation Xrotation Yrotation
                          JOINT RightHandIndex3
                          {
                            OFFSET 0 -3.4 0
                            CHANNELS 6 Xposition Yposition Zposition Zrotation Xrotation Yrotation
                            End Site
                            {
                              OFFSET 0 -2.6 0
                            }
                          }
                        }
                      }
                    }
                    JOINT RightHandMiddle
                    {
                      OFFSET 0.25 -2.2 0.4
                      CHANNELS 6 Xposition Yposition Zposition Zrotation Xrotation Yrotation
                      JOINT RightHandMiddle1
                      {
                        OFFSET 0 -8.3 1
                        CHANNELS 6 Xposition Yposition Zposition Zrotation Xrotation Yrotation
                        JOINT RightHandMiddle2
                        {
                          OFFSET 0 -4.65 0
                          CHANNELS 6 Xposition Yposition Zposition Zrotation Xrotation Yrotation
                          JOINT RightHandMiddle3
                          {
                            OFFSET 0 -3.3 0
                            CHANNELS 6 Xposition Yposition Zposition Zrotation Xrotation Yrotation
                            End Site
                            {
                              OFFSET 0 -2.7 0
                            }
                          }
                        }
                      }
                    }
                    JOINT RightHandRing
                    {
                      OFFSET 0.5 -2.15 -0.8
                      CHANNELS 6 Xposition Yposition Zposition Zrotation Xrotation Yrotation
                      JOINT RightHandRing1
                      {
                        OFFSET 0 -7.75 -0.2
                        CHANNELS 6 Xposition Yposition Zposition Zrotation Xrotation Yrotation
                        JOINT RightHandRing2
                        {
                          OFFSET 0 -3.8 0
                          CHANNELS 6 Xposition Yposition Zposition Zrotation Xrotation Yrotation
                          JOINT RightHandRing3
                          {
                            OFFSET 0 -3.4 0
                            CHANNELS 6 Xposition Yposition Zposition Zrotation Xrotation Yrotation
                            End Site
                            {
                              OFFSET 0 -2.6 0
                            }
                          }
                        }
                      }
                    }
                    JOINT RightHandPinky
                    {
                      OFFSET 0.75 -1.75 -1.85
                      CHANNELS 6 Xposition Yposition Zposition Zrotation Xrotation Yrotation
                      JOINT RightHandPinky1
                      {
                        OFFSET 0 -7.15 -1
                        CHANNELS 6 Xposition Yposition Zposition Zrotation Xrotation Yrotation
                        JOINT RightHandPinky2
                        {
                          OFFSET 0 -3 0
                          CHANNELS 6 Xposition Yposition Zposition Zrotation Xrotation Yrotation
                          JOINT RightHandPinky3
                          {
                            OFFSET 0 -2.35 0
                            CHANNELS 6 Xposition Yposition Zposition Zrotation Xrotation Yrotation
                            End Site
                            {
                              OFFSET 0 -2.1 0
                            }
                          }
                        }
                      }
                    }
                  }
                }
              }
            }
          }
        }
      }
    }
  }
  JOINT LeftUpLeg
  {
    OFFSET 8 0 0
    CHANNELS 6 Xposition Yposition Zposition Zrotation Xrotation Yrotation
    JOINT LeftLeg
    {
      OFFSET 0 -45 -1
      CHANNELS 6 Xposition Yposition Zposition Zrotation Xrotation Yrotation
      JOINT LeftFoot
      {
        OFFSET 0 -41 -2
        CHANNELS 6 Xposition Yposition Zposition Zrotation Xrotation Yrotation
        JOINT LeftToeBase
        {
          OFFSET 0 -7.5 12.5
          CHANNELS 6 Xposition Yposition Zposition Zrotation Xrotation Yrotation
          JOINT LeftFootToe
          {
            OFFSET 0 0 4
            CHANNELS 6 Xposition Yposition Zposition Zrotation Xrotation Yrotation
            End Site
            {
              OFFSET 0 0 0
            }
          }
        }
      }
    }
  }
  JOINT RightUpLeg
  {
    OFFSET -8 0 0
    CHANNELS 6 Xposition Yposition Zposition Zrotation Xrotation Yrotation
    JOINT RightLeg
    {
      OFFSET 0 -45 -1
      CHANNELS 6 Xposition Yposition Zposition Zrotation Xrotation Yrotation
      JOINT RightFoot
      {
        OFFSET 0 -41 -2
        CHANNELS 6 Xposition Yposition Zposition Zrotation Xrotation Yrotation
        JOINT RightToeBase
        {
          OFFSET 0 -7.5 12.5
          CHANNELS 6 Xposition Yposition Zposition Zrotation Xrotation Yrotation
          JOINT RightFootToe
          {
            OFFSET 0 0 4
            CHANNELS 6 Xposition Yposition Zposition Zrotation Xrotation Yrotation
            End Site
            {
              OFFSET 0 0 0
            }
          }
        }
      }
    }
  }
}
MOTION
Frames:	3
Frame Time:	0.0111111
0 93.5 0 0 0 -0 0 8 0 0 0 -0 0 8 0 0 0 -0 0 8 0 1.06261e-66 8.62091e-35 -7.06225e-31 0 8 2.13821e-50 0.00513852 0 -0 1.73472e-18 17 -2.13821e-50 1.06595e-10 3.70143e-40 3.86577e-39 -1.73472e-18 10.8 0 -7.76503e-19 -1.43567e-50 1.56813e-46 5 17 2.35203e-49 1.06595e-10 1.73761e-43 3.86579e-39 6.45 0 2.18953e-47 -7.76503e-19 -1.43567e-50 -1.56813e-46 6.45 0 -2.18953e-47 90.0002 1.1943e-16 3.74052e-20 0 -32.4 -2 7.76503e-19 -1.52555e-17 1.41844e-21 -2.84217e-14 -25.65 2 7.76503e-19 2.20695e-32 5.38807e-36 -0.5 -1.5 2.65 7.76503e-19 -5.7614e-16 8.30171e-19 0 -3.8 3.7 -0.0126132 -1.01337e-06 0.0153359 2.84217e-14 -3 2.7 -0.00619976 6.16337e-07 0.00502309 2.84217e-14 -1.9 1.6 7.76503e-19 1.59028e-15 -1.48168e-19 0 -8.3 1.9 7.76503e-19 -3.53113e-31 2.15523e-35 0 -4.5 0 -0.000154549 -0.00244296 3.16602e-06 2.84217e-14 -3.4 -4.44089e-16 5.29977e-11 -0.00223663 1.16891e-06 -0.25 -2.2 0.4 7.76503e-19 8.70961e-24 9.7065e-20 0 -8.3 1 7.76503e-19 0 -0 0 -4.65 0 -3.86592e-05 -0.00349397 0.000824461 0 -3.3 0 -1.07245e-07 0.00311687 0.00322186 -0.5 -2.15 -0.8 7.76503e-19 -1.98785e-16 -5.7516e-21 -2.84217e-14 -7.75 -0.2 7.76503e-19 -1.10348e-32 -0 0 -3.8 0 -0.000106327 -0.00237663 -0.00325861 0 -3.4 0 -7.40075e-08 -0.00265817 -0.00323738 -0.75 -1.75 -1.85 7.76503e-19 1.323e-23 1.94126e-19 0 -7.15 -1 7.76503e-19 0 -0 -2.84217e-14 -3 0 -0.000338077 1.74723e-23 2.64586e-24 2.84217e-14 -2.35 0 7.76503e-19 -6.62086e-32 -4.31046e-35 -5 17 1.11828e-47 1.06595e-10 1.73761e-43 3.86579e-39 -6.45 -2.84217e-14 0 -7.76503e-19 -1.43567e-50 -1.56813e-46 -6.45 0 0 -90.0002 1.02927e-15 5.68297e-20 0 -32.4 -2 1.27222e-14 3.11037e-16 1.18763e-19 0 -25.65 2 1.27222e-14 -3.53113e-31 2.97529e-31 0.5 -1.5 2.65 1.27222e-14 1.28176e-15 -1.10627e-19 0 -3.8 3.7 0.00605158 -9.02471e-07 -0.0117677 0 -3 2.7 0.00785267 1.60461e-06 -0.00318354 0 -1.9 1.6 1.27222e-14 -1.59028e-15 -5.69714e-20 -2.84217e-14 -8.3 1.9 1.21373e-14 -4.198e-11 -0.000797221 0 -4.5 -4.44089e-16 1.50665e-05 -2.9368e-06 0.00543069 2.84217e-14 -3.4 0 -1.11942e-06 -0.00632064 -0.000333855 0.25 -2.2 0.4 1.27222e-14 -7.95139e-16 -2.84857e-20 2.84217e-14 -8.3 1 5.07338e-14 4.42459e-10 -0.00821716 0 -4.65 0 0.000115913 6.00122e-06 -0.000520582 2.84217e-14 -3.3 0 -4.24916e-10 1.02173e-06 -0.00289147 0.5 -2.15 -0.8 1.27222e-14 1.98785e-16 -1.72171e-20 0 -7.75 -0.2 -1.46136e-13 -7.35231e-10 -0.0193197 -2.84217e-14 -3.8 1.11022e-16 0.000173868 -4.011e-08 0.0039906 0 -3.4 -1.11022e-16 -1.19464e-11 -1.94032e-06 0.00335611 0.75 -1.75 -1.85 1.27222e-14 -3.53113e-31 2.97508e-31 0 -7.15 -1 -1.11602e-14 -4.88913e-11 -0.0279886 2.84217e-14 -3 -4.44089e-16 9.88433e-07 -0.00239302 0.0191005 0 -2.35 0 1.36714e-07 -0.00236797 -0.00125133 8 0 0 -2.58845e-63 2.1e-31 7.06225e-31 0 -45 -1 -2.58845e-63 -2.1e-31 -7.06225e-31 0 -41 -2 0 0 -0 0 -7.5 12.5 -0 -9.93923e-17 -0 0 0 4 0 0 -0 -8 0 0 6.19315e-44 -0.000429753 7.06225e-31 0 -45 -1 -2.99634e-10 0.000901463 -1.40145e-10 1.77636e-15 -41 -2 2.99635e-10 -0.00047171 1.40149e-10 0 -7.5 12.5 8.34984e-34 -1.49089e-16 6.89673e-34 0 0 4 1.41245e-30 0 0.00642744 
-52.7255 92.3856 198.324 -6.46091 5.36967 37.9187 0 8 1.42109e-14 1.82483 -3.39947 -111.168 0 8 -1.42109e-14 -5.18259 -3.26668 97.5939 0 8 2.84217e-14 0.0283344 0.106435 23.0016 0 8 1.42109e-14 0.00217274 0.0267601 6.32418 2.84217e-14 17 -1.42109e-14 1.76814 6.96704 -1.18997 -2.84217e-14 10.8 0 4.44532 16.2363 -3.1826 5 17 0 -0.406467 1.55717 0.834086 6.45 2.84217e-14 1.42109e-14 3.43878 6.31866 -2.95512 6.45 0 2.84217e-14 0.966893 -12.2335 8.73788 2.84217e-14 -32.4 -2 -12.5402 -18.8233 -6.07417 -2.84217e-14 -25.65 2 8.13042 -8.20015 -7.30402 -0.5 -1.5 2.65 -2.5719 -16.2539 0.329217 2.84217e-14 -3.8 3.7 -0.0191007 22.9296 0.0166517 0 -3 2.7 -0.00814551 21.1744 0.00538678 2.84217e-14 -1.9 1.6 3.18055e-15 2.38542e-15 3.18055e-15 0 -8.3 1.9 -5.8774 1.02024 0.0663128 0 -4.5 0 -9.78695 -0.00244296 3.16602e-06 -2.84217e-14 -3.4 0 -8.63711 -0.00223663 1.16891e-06 -0.25 -2.2 0.4 3.18055e-15 1.59028e-15 3.18055e-15 0 -8.3 1 -13.683 0.49894 0.41274 -2.84217e-14 -4.65 2.84217e-14 -0.897574 -0.00349397 0.000824461 0 -3.3 0 -0.886477 0.00311687 0.00322186 -0.5 -2.15 -0.8 3.18055e-15 1.59028e-15 3.18055e-15 -2.84217e-14 -7.75 -0.2 -27.3302 -0.458504 0.873043 0 -3.8 1.42109e-14 -10.8172 -0.00237663 -0.00325861 0 -3.4 -1.42109e-14 -9.43391 -0.00265817 -0.00323738 -0.75 -1.75 -1.85 3.18055e-15 1.59028e-15 3.18055e-15 2.84217e-14 -7.15 -1 -36.682 -1.21664 1.01986 0 -3 0 -0.000338077 3.18055e-15 3.18055e-15 0 -2.35 0 0 0 -3.18055e-15 -5 17 0 0.126617 1.1355 -3.55586 -6.45 0 2.84217e-14 1.58208 7.36365 -0.20282 -6.45 0 0 -13.152 -21.3615 -3.96036 0 -32.4 -2 16.001 -16.8791 9.48722 -2.84217e-14 -25.65 2 0.431653 7.41097 14.8108 0.5 -1.5 2.65 -2.69022 -22.9946 -2.8013 0 -3.8 3.7 0.0271804 34.5217 -0.0142828 0 -3 2.7 0.00890211 18.2446 -0.00335205 2.84217e-14 -1.9 1.6 1.35174e-14 8.94531e-16 6.36111e-15 -2.84217e-14 -8.3 1.9 0.0427167 -1.75093 -0.000797593 0 -4.5 0 1.50665e-05 -2.9368e-06 0.00543069 0 -3.4 -7.10543e-15 -1.11942e-06 -0.00632064 -0.000333855 0.25 -2.2 0.4 1.35174e-14 2.48481e-15 6.36111e-15 0 -8.3 1 0.0495884 -1.51427 -0.00822003 2.84217e-14 -4.65 0 2.57979 6.00122e-06 -0.000520582 0 -3.3 0 2.49074 1.02173e-06 -0.00289147 0.5 -2.15 -0.8 1.35174e-14 2.68359e-15 6.36111e-15 2.84217e-14 -7.75 -0.2 0.0401725 -1.10198 -0.0193233 -2.84217e-14 -3.8 7.10543e-15 7.34919 -4.011e-08 0.0039906 2.84217e-14 -3.4 -3.55271e-15 6.67706 -1.94032e-06 0.00335611 0.75 -1.75 -1.85 1.35174e-14 2.68359e-15 6.36111e-15 0 -7.15 -1 0.0167942 -0.895225 -0.027992 -2.84217e-14 -3 7.10543e-15 1.72688 -0.00239302 0.0191005 0 -2.35 3.55271e-15 1.68516 -0.00236797 -0.00125133 8 -1.42109e-14 0 14.6901 -11.2015 20.7897 0 -45 -1 -0.0284172 10.1361 0.470654 0 -41 -2 -10.7054 -2.08072 -14.4837 2.84217e-14 -7.5 12.5 -4.96962e-17 -3.97569e-16 -0 -2.84217e-14 0 4 3.00034 1.9626 0.038799 -8 0 0 -5.83279 -12.5338 3.88134 0 -45 -1 0.00525698 4.31874 0.50123 0 -41 -2 7.84621 -0.638869 -1.41052 2.84217e-14 -7.5 12.5 6.06643e-21 -1.49095e-16 -3.18055e-15 0 -2.71051e-20 4 -3.62127 -1.02943 0.00642848 
-52.9818 92.3745 198.061 -6.70319 5.69023 37.8869 0 8 2.84217e-14 1.73634 -3.17323 -111.181 2.84217e-14 8 0 -5.63954 -3.47341 97.5423 2.84217e-14 8 -2.84217e-14 0.0282455 0.144667 23.0987 0 8 0 0.00112488 0.0360647 6.35032 0 17 1.42109e-14 1.77164 6.98777 -1.22921 2.84217e-14 10.8 -1.42109e-14 4.46278 16.2833 -3.27816 5 17 -7.10543e-15 -0.44545 1.54867 0.986441 6.45 0 0 3.57433 6.43975 -3.00746 6.45 -2.84217e-14 0 0.713082 -13.2331 8.54721 0 -32.4 -2 -12.6669 -19.473 -5.89439 2.84217e-14 -25.65 2 8.52678 -8.23707 -7.73922 -0.5 -1.5 2.65 -2.58925 -16.2351 0.424198 0 -3.8 3.7 -0.0191163 22.9791 0.0166578 0 -3 2.7 -0.00815015 21.2204 0.00538845 0 -1.9 1.6 3.18055e-15 3.18055e-15 -3.18055e-15 2.84217e-14 -8.3 1.9 -5.91478 1.00236 0.0670258 -2.84217e-14 -4.5 0 -9.81711 -0.00244296 3.16602e-06 0 -3.4 0 -8.66075 -0.00223663 1.16891e-06 -0.25 -2.2 0.4 3.18055e-15 1.59028e-15 -3.18055e-15 0 -8.3 1 -13.6903 0.48056 0.409472 0 -4.65 2.84217e-14 -1.00277 -0.00349397 0.000824461 0 -3.3 0 -0.988644 0.00311687 0.00322186 -0.5 -2.15 -0.8 3.18055e-15 1.59028e-15 -3.18055e-15 0 -7.75 -0.2 -27.2887 -0.482877 0.861841 0 -3.8 0 -10.8147 -0.00237663 -0.00325861 0 -3.4 0 -9.43196 -0.00265817 -0.00323738 -0.75 -1.75 -1.85 3.18055e-15 1.59028e-15 -3.18055e-15 0 -7.15 -1 -36.6138 -1.24342 1.00305 -2.84217e-14 -3 1.42109e-14 -0.000338077 -3.18055e-15 9.54166e-15 0 -2.35 0 -3.18055e-15 -6.36111e-15 -3.18055e-15 -5 17 0 0.129926 1.18553 -3.63775 -6.45 -2.84217e-14 0 1.61838 7.57162 -0.140621 -6.45 0 2.84217e-14 -13.4669 -22.5542 -4.14179 0 -32.4 -2 16.0113 -17.1197 9.30185 0 -25.65 2 0.157494 7.23748 14.8374 0.5 -1.5 2.65 -2.63175 -22.897 -2.71048 2.84217e-14 -3.8 3.7 0.0271902 34.4471 -0.01427 0 -3 2.7 0.00890236 18.2487 -0.00335213 0 -1.9 1.6 1.35174e-14 9.93923e-16 -0 -2.84217e-14 -8.3 1.9 0.0396715 -1.69886 -0.000797571 2.84217e-14 -4.5 7.10543e-15 1.50665e-05 -2.9368e-06 0.00543069 2.84217e-14 -3.4 0 -1.11942e-06 -0.00632064 -0.000333855 0.25 -2.2 0.4 1.35174e-14 2.5842e-15 -0 0 -8.3 1 0.0514029 -1.47637 -0.00821989 0 -4.65 0 2.67394 6.00122e-06 -0.000520582 2.84217e-14 -3.3 0 2.57849 1.02173e-06 -0.00289147 0.5 -2.15 -0.8 1.35174e-14 2.5842e-15 -0 0 -7.75 -0.2 0.0500227 -1.09495 -0.0193232 0 -3.8 -7.10543e-15 7.41813 -4.011e-08 0.0039906 -2.84217e-14 -3.4 7.10543e-15 6.73379 -1.94032e-06 0.00335611 0.75 -1.75 -1.85 1.35174e-14 2.5842e-15 -0 2.84217e-14 -7.15 -1 0.0295195 -0.903617 -0.0279921 0 -3 7.10543e-15 1.8684 -0.00239302 0.0191005 0 -2.35 -7.10543e-15 1.82004 -0.00236797 -0.00125133 8 -1.42109e-14 1.42109e-14 14.8829 -12.0088 21.334 -2.84217e-14 -45 -1 -0.0310474 10.6147 0.484157 -2.84217e-14 -41 -2 -10.5627 -1.88145 -14.8335 0 -7.5 12.5 0 1.98785e-16 -0 2.84217e-14 0 4 2.90467 1.79143 0.0448846 -8 0 0 -5.84717 -13.333 3.3648 0 -45 -1 0.00758435 4.64422 0.497853 0 -41 -2 7.80212 -0.562269 -0.900028 0 -7.5 12.5 -1.2424e-17 -1.2424e-16 -1.27222e-14 0 0 4 -3.52914 -0.961621 0.00642835 
